# AST/ASF file generated using VICON BodyLanguage
# -----------------------------------------------
:version 1.10
:name VICON
:units
  mass 1.0
  length 0.45
  angle deg
:documentation
   .ast/.asf automatically generated from VICON data using
   VICON BodyBuilder and BodyLanguage model FoxedUp or BRILLIANT.MOD
:root
   order TX TY TZ RX RY RZ
   axis XYZ
   position 0 0 0  
   orientation 0 0 0 
:bonedata
  begin
     id 1 
     name lhipjoint
     direction 0.601702 -0.665326 0.441924 
     length 2.60689 
     axis 0 0 0  XYZ
  end
  begin
     id 2 
     name lfemur
     direction 0.34202 -0.939693 0  
     length 6.99849  
     axis 0 0 20  XYZ
    dof rx ry rz
    limits (-160.0 20.0)
           (-70.0 70.0)
           (-60.0 70.0)
  end
  begin
     id 3 
     name ltibia
     direction 0.34202 -0.939693 0   
     length 7.33734   
     axis 0 0 20   XYZ
    dof rx
    limits (-10.0 170.0)
  end
  begin
     id 4 
     name lfoot
     direction 0.0879468 -0.241632 0.966374   
     length 1.95247   
     axis -90 7.62852e-016 20   XYZ
    dof rx rz
    limits (-45.0 90.0)
           (-70.0 20.0)
  end
  begin
     id 5 
     name ltoes
     direction 1.53555e-011 -4.22053e-011 1   
     length 0.981458   
     axis -90 7.62852e-016 20   XYZ
    dof rx
    limits (-90.0 20.0)
  end
  begin
     id 6 
     name rhipjoint
     direction -0.524152 -0.709394 0.471195   
     length 2.44495  
     axis 0 0 0  XYZ 
  end
  begin
     id 7 
     name rfemur
     direction -0.34202 -0.939693 0   
     length 6.63298   
     axis 0 0 -20   XYZ
    dof rx ry rz
    limits (-160.0 20.0)
           (-70.0 70.0)
           (-70.0 60.0)
  end
  begin
     id 8 
     name rtibia
     direction -0.34202 -0.939693 0   
     length 7.43066   
     axis 0 0 -20   XYZ
    dof rx
    limits (-10.0 170.0)
 end
 begin
     id 9 
     name rfoot
     direction -0.113818 -0.312714 0.943003   
     length 2.04792  
     axis -90 -7.62852e-016 -20   XYZ
    dof rx rz
    limits (-45.0 90.0)
           (-20.0 70.0)
  end
  begin
     id 10 
     name rtoes
     direction -1.53508e-011 -4.21689e-011 1   
     length 1.02013   
     axis -90 -7.62852e-016 -20   XYZ
    dof rx
    limits (-90.0 20.0)
  end
  begin
     id 11 
     name lowerback
     direction -0.0334041 0.990787 -0.131244   
     length 2.12417   
     axis 0 0 0   XYZ
    dof rx ry rz
    limits (-20.0 45.0)
           (-30.0 30.0)
           (-30.0 30.0)
  end
  begin
     id 12 
     name upperback
     direction -0.00386223 0.999243 -0.0387184   
     length 2.13824   
     axis 0 0 0   XYZ
    dof rx ry rz
    limits (-20.0 45.0)
           (-30.0 30.0)
           (-30.0 30.0)
  end
  begin
     id 13 
     name thorax
     direction 0.00911962 0.999708 0.0223632   
     length 2.17223   
     axis 0 0 0   XYZ
    dof rx ry rz
    limits (-20.0 45.0)
           (-30.0 30.0)
           (-30.0 30.0)
  end
  begin
     id 14 
     name lowerneck
     direction 0.0180441 0.990527 0.136127   
     length 1.79499   
     axis 0 0 0   XYZ
    dof rx ry rz
    limits (-20.0 45.0)
           (-30.0 30.0)
           (-30.0 30.0)
  end
  begin
     id 15 
     name upperneck
     direction 0.00566481 0.961662 -0.274179   
     length 1.81138   
     axis 0 0 0   XYZ
    dof rx ry rz
    limits (-20.0 45.0)
           (-30.0 30.0)
           (-30.0 30.0)
  end
  begin
     id 16
     name head
     direction 0.000922185 0.994286 -0.106749  
     length 1.84109  
     axis 0 0 0   XYZ
    dof rx ry rz
    limits (-20.0 45.0)
           (-30.0 30.0)
           (-30.0 30.0)
  end
  begin
     id 17 
     name lclavicle
     direction 0.916316 0.39017 -0.0901807  
     length 3.48327  
     axis 0 0 0   XYZ
    dof ry rz
    limits (-20.0 10.0)
           (0.0 20.0)
  end
  begin
     id 18 
     name lhumerus
     direction 1 -4.4897e-011 -7.31988e-029   
     length 4.85247   
     axis 180 -30 -90   XYZ
    dof rx ry rz
    limits (-60.0 90.0)
           (-90.0 90.0)
           (-90.0 90.0)
  end
  begin
     id 19
     name lradius
     direction 1 -4.4895e-011 9.36002e-027   
     length 3.55584   
     axis 180 -30 -90   XYZ
    dof rx
    limits (-10.0 170.0)
  end
  begin
     id 20
     name lwrist
     direction 1 -4.48975e-011 1.73237e-026   
     length 1.77792   
     axis -9.60847e-015 90 90   XYZ
    dof ry
    limits (-180.0 0.0)
 end
  begin
     id 21 
     name lhand
     direction 1 -4.48951e-011 3.46425e-026   
     length 0.693203   
     axis -2.21073e-014 90 90   XYZ
    dof rx rz
    limits (-90.0 90.0)
           (-45.0 45.0)
  end
  begin
     id 22 
     name lfingers
     direction 1 -4.48937e-011 6.92793e-026   
     length 0.558878   
     axis -4.42155e-014 90 90   XYZ
    dof rx
    limits (0.0 90.0)
  end
  begin
     id 23
     name lthumb
     direction 0.707107 -6.34959e-011 0.707107   
     length 0.802441   
     axis -90 45 6.0103e-014   XYZ
    dof rx rz
    limits (-45.0 45.0)
           (-45.0 45.0)
  end
  begin
     id 24 
     name rclavicle
     direction -0.932839 0.352129 -0.0762679   
     length 3.52686  
     axis 0 0 0   XYZ 
    dof ry rz
    limits (-10.0 20.0)
           (-20.0 0.0)
  end
  begin
     id 25 
     name rhumerus
     direction -1 -4.48974e-011 2.90424e-028  
     length 4.64462   
     axis 180 30 90   XYZ
    dof rx ry rz
    limits (-90.0 60.0)
           (-90.0 90.0)
           (-90.0 90.0)
  end
  begin
     id 26 
     name rradius
     direction -1 -4.48956e-011 7.17421e-027   
     length 3.40703   
     axis 180 30 90   XYZ
    dof rx
    limits (-10.0 170.0)
  end
  begin
     id 27 
     name rwrist
     direction -1 -4.48971e-011 1.73232e-026   
     length 1.70352   
     axis -9.60847e-015 -90 -90   XYZ
    dof ry
    limits (-180.0 0.0)
  end
  begin
     id 28
     name rhand
     direction -1 -4.49004e-011 3.46531e-026   
     length 0.619577   
     axis -2.21073e-014 -90 -90   XYZ
    dof rx rz
    limits (-90.0 90.0)
           (-45.0 45.0)
  end
  begin
     id 29
     name rfingers
     direction -1 -4.48859e-011 6.92483e-026   
     length 0.499519   
     axis -4.42155e-014 -90 -90   XYZ
    dof rx
    limits (0.0 90.0)
  end
  begin
     id 30
     name rthumb
     direction -0.707107 -6.34911e-011 0.707107   
     length 0.717212   
     axis -90 -45 -6.0103e-014   XYZ
    dof rx rz
    limits (-45.0 45.0)
           (-45.0 45.0)
  end
:hierarchy
  begin
    root lhipjoint rhipjoint lowerback
    lhipjoint lfemur
    lfemur ltibia
    ltibia lfoot
    lfoot ltoes
    rhipjoint rfemur
    rfemur rtibia
    rtibia rfoot
    rfoot rtoes
    lowerback upperback
    upperback thorax
    thorax lowerneck lclavicle rclavicle
    lowerneck upperneck
    upperneck head
    lclavicle lhumerus
    lhumerus lradius
    lradius lwrist
    lwrist lhand lthumb
    lhand lfingers
    rclavicle rhumerus
    rhumerus rradius
    rradius rwrist
    rwrist rhand rthumb
    rhand rfingers
  end

#!OML:ASF Y:\EmotionMaleHayes\Project 1\Capture day 1\Session 1\Male1.ASF
:FULLY-SPECIFIED
:DEGREES
147
root -28.4994 17.0414 1.71609 52.4506 85.3119 54.6581
lowerback 4.90944 2.02412 -6.96163
upperback 0.756015 2.33627 -1.6274
thorax -2.18009 1.23166 2.05542
lowerneck -21.0729 2.71251 5.54361
upperneck 27.5195 3.03845 -2.3748
head 12.8192 1.74075 -1.30422
rclavicle -2.40281e-014 3.02153e-014
rhumerus -27.3393 14.7368 -88.1702
rradius 33.4968
rwrist 1.46445
rhand -6.48851 -33.4847
rfingers 7.12502
rthumb 19.3627 -62.5407
lclavicle -2.40281e-014 3.02153e-014
lhumerus -23.5048 -20.9561 83.5545
lradius 29.6291
lwrist -7.38027
lhand -10.6705 -23.6612
lfingers 7.12502
lthumb 15.3379 5.74999
rfemur 8.65791 -2.54482 11.2024
rtibia 6.88008
rfoot -18.6739 -4.50846
rtoes 5.90787
lfemur 13.9945 0.594742 -19.3342
ltibia -1.75388
lfoot -13.6227 13.9797
ltoes -4.34742
148
root -28.4942 17.0407 1.73173 55.379 85.4602 57.57
lowerback 4.81791 1.97058 -6.77992
upperback 0.794354 2.28462 -1.72236
thorax -2.07357 1.20134 1.86463
lowerneck -21.2122 2.67797 5.66577
upperneck 27.6409 2.9353 -2.36036
head 12.8947 1.71136 -1.33634
rclavicle -2.88238e-015 1.03368e-014
rhumerus -27.0471 14.873 -88.0647
rradius 33.6729
rwrist 1.47554
rhand -6.2668 -33.7601
rfingers 7.12502
rthumb 19.5759 -62.7945
lclavicle -2.88238e-015 1.03368e-014
lhumerus -22.947 -21.5456 83.1461
lradius 29.7592
lwrist -7.20184
lhand -10.776 -23.6041
lfingers 7.12502
lthumb 15.2363 5.81484
rfemur 8.67086 -3.14308 11.0562
rtibia 7.00695
rfoot -18.64 -4.21644
rtoes 6.42893
lfemur 13.925 0.451173 -19.3214
ltibia -1.6866
lfoot -13.4726 13.9283
ltoes -4.78782
149
root -28.4872 17.0382 1.75126 56.1089 85.7528 58.2407
lowerback 4.69069 1.93815 -6.47152
upperback 0.785624 2.26626 -1.70284
thorax -1.99901 1.18755 1.71925
lowerneck -21.1628 2.65586 5.62325
upperneck 27.6128 2.88316 -2.23805
head 12.8678 1.70121 -1.29099
rclavicle 1.3008e-014 -3.53837e-014
rhumerus -26.7691 14.984 -87.9351
rradius 33.7907
rwrist 1.53037
rhand -6.14192 -33.9984
rfingers 7.12502
rthumb 19.6959 -63.0206
lclavicle 1.3008e-014 -3.53837e-014
lhumerus -22.4586 -22.1378 82.8509
lradius 29.8477
lwrist -6.88095
lhand -11.1683 -23.619
lfingers 7.12502
lthumb 14.8583 5.82823
rfemur 8.68905 -3.36338 11.3516
rtibia 7.00157
rfoot -18.6445 -4.27162
rtoes 6.27838
lfemur 13.9163 0.228034 -19.0118
ltibia -1.7791
lfoot -13.4107 13.9473
ltoes -5.28316
150
root -28.4821 17.038 1.77337 55.1961 85.8211 57.2977
lowerback 4.65528 1.96551 -6.47378
upperback 0.725255 2.30153 -1.58187
thorax -2.04969 1.20658 1.84256
lowerneck -21.126 2.63845 5.51632
upperneck 27.6942 2.91049 -2.25087
head 12.8926 1.70316 -1.27341
rclavicle 2.84759e-014 -1.55052e-014
rhumerus -26.5611 15.3571 -87.6715
rradius 33.8513
rwrist 1.48508
rhand -6.16622 -33.8297
rfingers 7.12502
rthumb 19.6726 -62.8543
lclavicle 2.84759e-014 -1.55052e-014
lhumerus -22.0096 -22.0733 82.6534
lradius 29.9288
lwrist -6.93399
lhand -11.0089 -23.7852
lfingers 7.12502
lthumb 15.0119 5.65059
rfemur 8.70415 -2.90614 11.7515
rtibia 6.90365
rfoot -18.7939 -4.60067
rtoes 6.73332
lfemur 13.8852 0.527207 -18.6704
ltibia -1.71553
lfoot -13.3454 13.6608
ltoes -5.47109
151
root -28.4791 17.0381 1.79524 55.258 85.779 57.3494
lowerback 4.659 2.00115 -6.55256
upperback 0.67824 2.34204 -1.52339
thorax -2.10938 1.22942 1.94245
lowerneck -21.0668 2.60267 5.37718
upperneck 27.7125 2.89534 -2.18519
head 12.8831 1.69247 -1.22742
rclavicle -9.75287e-015 2.26615e-014
rhumerus -26.36 15.8562 -87.4459
rradius 33.9875
rwrist 1.32967
rhand -6.22486 -33.8642
rfingers 7.12502
rthumb 19.6162 -62.8945
lclavicle -9.75287e-015 2.26615e-014
lhumerus -21.7734 -22.4293 82.4696
lradius 30.2416
lwrist -6.56552
lhand -10.9948 -23.7371
lfingers 7.12502
lthumb 15.0255 5.69772
rfemur 8.70937 -2.52513 11.9394
rtibia 6.85842
rfoot -18.949 -4.82946
rtoes 7.45866
lfemur 13.8329 0.778025 -18.5286
ltibia -1.593
lfoot -13.265 13.5032
ltoes -5.71049
152
root -28.4766 17.0352 1.81708 54.3494 86.1074 56.4654
lowerback 4.69178 1.96246 -6.13865
upperback 0.678587 2.30755 -1.47218
thorax -2.11061 1.2083 1.76676
lowerneck -21.1432 2.59311 5.36059
upperneck 27.7913 2.85964 -2.10234
head 12.9279 1.68734 -1.19814
rclavicle 9.4547e-015 1.27222e-014
rhumerus -26.0833 16.1061 -87.3083
rradius 34.0073
rwrist 1.45284
rhand -6.37556 -33.4948
rfingers 7.12502
rthumb 19.4713 -62.5398
lclavicle 9.4547e-015 1.27222e-014
lhumerus -21.3739 -22.9683 82.0937
lradius 30.5055
lwrist -6.17572
lhand -11.5042 -23.1316
lfingers 7.12502
lthumb 14.5348 6.33923
rfemur 8.76269 -2.5442 12.4039
rtibia 6.88761
rfoot -19.0192 -4.96576
rtoes 7.23707
lfemur 13.8054 0.6135 -18.0774
ltibia -1.48908
lfoot -13.2224 13.6104
ltoes -6.54274
153
root -28.4744 17.0317 1.83963 52.157 86.5836 54.367
lowerback 4.80749 1.90639 -5.59375
upperback 0.68886 2.25147 -1.36457
thorax -2.14419 1.17572 1.57507
lowerneck -21.2381 2.60461 5.36573
upperneck 27.9457 2.86697 -2.07163
head 13.0108 1.69806 -1.18508
rclavicle -1.62134e-014 2.94201e-014
rhumerus -25.8002 16.0863 -87.1522
rradius 33.954
rwrist 1.73684
rhand -6.64535 -32.1932
rfingers 7.12502
rthumb 19.2119 -61.2643
lclavicle -1.62134e-014 2.94201e-014
lhumerus -20.751 -23.531 81.7115
lradius 30.4642
lwrist -5.74115
lhand -11.7948 -22.7022
lfingers 7.12502
lthumb 14.2547 6.78854
rfemur 8.92896 -2.67576 13.0399
rtibia 6.86962
rfoot -19.0435 -5.06653
rtoes 6.6767
lfemur 13.6721 0.980758 -17.188
ltibia -1.02361
lfoot -13.1831 13.0529
ltoes -7.16909
154
root -28.4702 17.0312 1.85963 56.2034 86.5403 58.4846
lowerback 4.81933 1.89013 -5.72985
upperback 0.723796 2.22431 -1.39474
thorax -2.11666 1.16256 1.62203
lowerneck -21.2433 2.57394 5.26109
upperneck 27.9917 2.83847 -1.9922
head 13.026 1.68668 -1.14135
rclavicle 2.06488e-014 -1.19271e-014
rhumerus -25.5868 16.0426 -86.976
rradius 34.154
rwrist 1.87577
rhand -6.38142 -33.5575
rfingers 7.12502
rthumb 19.4657 -62.6031
lclavicle 2.06488e-014 -1.19271e-014
lhumerus -20.4182 -23.8777 81.3814
lradius 30.8186
lwrist -5.76024
lhand -11.747 -22.9509
lfingers 7.12502
lthumb 14.3008 6.53658
rfemur 9.0948 -2.93114 12.8164
rtibia 6.82359
rfoot -19.0406 -4.93123
rtoes 6.91042
lfemur 13.9426 -0.0066393 -17.7203
ltibia -1.4453
lfoot -13.3062 13.8602
ltoes -6.24073
155
root -28.461 17.032 1.87642 60.8106 86.1617 63.096
lowerback 4.62144 1.87731 -6.17985
upperback 0.808422 2.2058 -1.47002
thorax -1.93051 1.15177 1.80445
lowerneck -21.2495 2.55533 5.27634
upperneck 27.9582 2.85543 -2.15562
head 13.0169 1.67194 -1.20465
rclavicle 6.02566e-015 -1.27222e-014
rhumerus -25.2794 16.4637 -86.7484
rradius 34.4313
rwrist 1.76088
rhand -6.21568 -33.8519
rfingers 7.12502
rthumb 19.625 -62.8813
lclavicle 6.02566e-015 -1.27222e-014
lhumerus -19.8965 -23.8332 80.9995
lradius 31.2196
lwrist -5.44878
lhand -10.7492 -23.1134
lfingers 7.12502
lthumb 15.2621 6.30355
rfemur 9.16603 -3.21749 12.174
rtibia 6.85562
rfoot -19.0551 -4.67201
rtoes 6.74297
lfemur 13.9963 -0.0905622 -18.3061
ltibia -1.51477
lfoot -13.2524 14.0312
ltoes -6.61699
156
root -28.4499 17.032 1.89499 62.9972 85.9145 65.2824
lowerback 4.72533 1.87633 -6.52254
upperback 0.660915 2.17122 -1.45264
thorax -2.15202 1.14535 2.00859
lowerneck -21.0729 2.56633 5.31497
upperneck 27.9565 2.92657 -2.32009
head 12.9862 1.68797 -1.26382
rclavicle 1.09518e-014 -1.31198e-014
rhumerus -25.2771 17.1588 -86.524
rradius 34.6271
rwrist 1.49438
rhand -5.96034 -34.1672
rfingers 7.12502
rthumb 19.8705 -63.1714
lclavicle 1.09518e-014 -1.31198e-014
lhumerus -19.4568 -23.7439 80.8454
lradius 31.0525
lwrist -5.60169
lhand -10.6079 -23.0397
lfingers 7.12502
lthumb 15.3982 6.36684
rfemur 9.28614 -3.30712 11.8527
rtibia 6.78281
rfoot -19.0826 -4.60913
rtoes 6.41983
lfemur 14.0624 -0.263496 -18.6999
ltibia -1.59655
lfoot -13.2917 14.2714
ltoes -7.07858
157
root -28.4462 17.0336 1.91611 65.6815 85.7854 67.9652
lowerback 4.74684 1.84715 -6.77369
upperback 0.63276 2.11689 -1.44563
thorax -2.19794 1.12243 2.15807
lowerneck -21.0039 2.57261 5.2527
upperneck 27.9333 2.95089 -2.28242
head 12.9616 1.69787 -1.23479
rclavicle 8.90183e-015 -1.90833e-014
rhumerus -24.9453 17.5973 -86.2612
rradius 34.6726
rwrist 1.39214
rhand -5.77049 -34.648
rfingers 7.12502
rthumb 20.053 -63.6332
lclavicle 8.90183e-015 -1.90833e-014
lhumerus -19.0662 -23.9657 80.5198
lradius 31.3842
lwrist -5.04933
lhand -10.2577 -22.9122
lfingers 7.12502
lthumb 15.7354 6.46815
rfemur 9.40844 -3.29594 11.7142
rtibia 6.59427
rfoot -19.0509 -4.70226
rtoes 7.02312
lfemur 13.9763 -0.405627 -18.9337
ltibia -1.42817
lfoot -13.3844 14.2859
ltoes -6.94252
158
root -28.4525 17.0345 1.93925 68.5059 85.9886 70.768
lowerback 4.72516 1.77621 -6.59934
upperback 0.718096 2.03804 -1.46305
thorax -2.08367 1.07716 2.05144
lowerneck -21.2091 2.53963 5.2868
upperneck 28.0017 2.84789 -2.19368
head 13.0268 1.66662 -1.22277
rclavicle 5.24916e-015 -3.33958e-014
rhumerus -24.2731 17.6622 -86.0374
rradius 34.6089
rwrist 1.39264
rhand -5.79184 -34.768
rfingers 7.12502
rthumb 20.0325 -63.7553
lclavicle 5.24916e-015 -3.33958e-014
lhumerus -18.3785 -24.4117 79.9438
lradius 31.6334
lwrist -4.76767
lhand -9.98337 -23.2395
lfingers 7.12502
lthumb 15.9997 6.11978
rfemur 9.47742 -3.33728 11.9752
rtibia 6.43619
rfoot -19.0515 -4.88825
rtoes 7.88125
lfemur 13.7574 -0.296444 -18.6114
ltibia -1.11543
lfoot -13.2988 13.9669
ltoes -7.34614
159
root -28.4666 17.032 1.96767 75.2489 86.3491 77.4609
lowerback 4.75733 1.61788 -6.32018
upperback 0.802225 1.84332 -1.45656
thorax -1.98954 0.974145 1.91752
lowerneck -21.5223 2.56485 5.50974
upperneck 28.1352 2.84611 -2.3886
head 13.1542 1.66079 -1.33529
rclavicle 1.35174e-014 -1.59028e-015
rhumerus -23.6759 17.9085 -85.8487
rradius 34.7156
rwrist 1.20331
rhand -6.03202 -34.4328
rfingers 7.12502
rthumb 19.8016 -63.4441
lclavicle 1.35174e-014 -1.59028e-015
lhumerus -17.526 -24.6734 79.3354
lradius 31.7065
lwrist -4.80011
lhand -9.5562 -23.8012
lfingers 7.12502
lthumb 16.411 5.52457
rfemur 9.56729 -3.4539 12.4083
rtibia 6.26743
rfoot -19.1396 -5.2886
rtoes 8.13667
lfemur 13.4035 -0.0224331 -18.01
ltibia -0.766512
lfoot -13.0297 13.2446
ltoes -8.09292
160
root -28.4367 17.0392 1.976 68.454 86.202 70.8331
lowerback 4.61886 1.76707 -6.12396
upperback 0.852601 2.06475 -1.45214
thorax -1.87111 1.07902 1.80261
lowerneck -21.5416 2.531 5.46137
upperneck 28.2325 2.84873 -2.47532
head 13.1987 1.64707 -1.3607
rclavicle -9.47954e-015 -9.14409e-015
rhumerus -23.4435 18.4051 -85.6371
rradius 34.8967
rwrist 1.02823
rhand -6.14377 -34.0242
rfingers 7.12502
rthumb 19.6941 -63.0466
lclavicle -9.47954e-015 -9.14409e-015
lhumerus -17.1066 -24.8551 79.0231
lradius 31.8593
lwrist -4.59011
lhand -9.511 -24.0987
lfingers 7.12502
lthumb 16.4545 5.22349
rfemur 9.77714 -3.54284 12.2997
rtibia 6.27833
rfoot -19.0798 -4.7238
rtoes 7.54596
lfemur 13.9571 0.0042729 -18.0907
ltibia -1.18914
lfoot -13.135 13.6064
ltoes -7.68835
